<svg id="Ebene_1" data-name="Ebene 1" xmlns="http://www.w3.org/2000/svg" xmlns:xlink="http://www.w3.org/1999/xlink" viewBox="0 0 7504 2002.27"><defs><style>.cls-1{fill:none;}.cls-2{clip-path:url(#clip-path);}.cls-3,.cls-7{fill:#fff;}.cls-4{fill:#d53640;}.cls-5{fill:#ffdd43;}.cls-6{fill:#2047ab;}.cls-7{fill-rule:evenodd;}</style><clipPath id="clip-path"><ellipse class="cls-1" cx="1611.31" cy="1565.5" rx="366.01" ry="366.66"/></clipPath></defs><title>Logo Tag_WHITE (1)</title><g class="cls-2"><rect class="cls-3" x="1060.99" y="1194.28" width="1099.33" height="742.44"/></g><g class="cls-2"><path class="cls-4" d="M2160.32,1750.2H1061V1916a19.24,19.24,0,0,0,19,19.54H2141.43c10.42,0,19-8.73,19-19.54V1750.2Z"/></g><g class="cls-2"><path class="cls-5" d="M2160.32,1564.85H1061v-351a19.24,19.24,0,0,1,19-19.54H2141.43c10.42,0,19,8.73,19,19.54v351Z"/></g><g class="cls-2"><path class="cls-6" d="M2160.32,1564.85H1061V1750.2H2160.32Z"/></g><path class="cls-3" d="M1611.31,1208.48c195.9,0,356.37,160.73,356.37,357s-160.47,357-356.37,357-356.37-160.73-356.37-357S1415.28,1208.48,1611.31,1208.48Zm0-14.2c-204.5,0-370.57,166.46-370.57,371.22s166.07,371.22,370.57,371.22,370.56-166.46,370.56-371.22S1815.8,1194.28,1611.31,1194.28Z"/><path class="cls-7" d="M1098.11,1049.05c-.39,0-46.11-5.86-51.45-6.12a11.23,11.23,0,0,1-2-.13c-4.17-.13-11.33-.39-16.41-.78-3.65-.26-7.69-3.26-7.82-6.91-.13-1.82-.13-3.91-.13-6.12,0-1.82,0-3.78-.13-5.6,0-7.95.91-20.84,1.3-23.84a2.2,2.2,0,0,1,.26-.65,1.54,1.54,0,0,1,1.44-.65h10.16c1.56,0,1.56,3.91,1.43,6.25v.52c0,2.09-.39,18.24-.39,20.45s4.43,4.17,10,4,53.79-3,54.7-3h0c.92,0,100.82-4.43,111.37-4.95s12.11-15.89,12-27.88a84.28,84.28,0,0,0-2.86-19.15,6,6,0,0,0-5.86-4.42l-12.12-.26a3.19,3.19,0,0,1-3.12-3.52,3.12,3.12,0,0,1,3.38-3l30.09,1.31c3,.13,5.47,2.34,6.9,5.08,1,1.95,2.74,3.64,4.95,3.64a4.14,4.14,0,0,0,3.26-1.56c.13-.13.26-.39.39-.52,2.22-2.61,4.69-5.6,8.08-5.47a6.28,6.28,0,0,1,6.12,6.51c-.13,5.73-.26,13.94-.39,18.11,0,7,3,13.54,7.55,13.8a4.47,4.47,0,0,0,4-1.82c2.21-2.61,4.95-5.34,8.21-5.21l10.16.39c3.51.13,6.12,3.13,7.29,6.38.91,2.35,2.47,4.43,5.21,4.43,2.87.26,4.56-1.82,5.73-4.17,1.43-3.12,4.3-5.86,7.82-5.73l65.9,2.35c2.22.13,3.91,1.69,5.61,3.25.91.78,1.82,1.7,2.73,2.35a4.23,4.23,0,0,0,1.82.52,4.72,4.72,0,0,0,3.26-1.43c2.08-2,4.43-3.91,7.29-3.91l26.32.78a6.82,6.82,0,0,0,5.08-2.21l.52-.53a7,7,0,0,1,9.9-.39c4.29,3.65,10.42,8.08,15,8,7.69,0,20.32-10.55,25.27-21.49a55.52,55.52,0,0,0,4-12.38c.78-3.51,3.65-6.38,7.3-6.38,30-.13,155-.39,167.11-.39,13.81-.26,15.24-35.82,14.2-33.47-.52,1.3-2.35,6-3.65,9.63a6.5,6.5,0,0,1-6.64,4.17l-187.83-15.24a8.1,8.1,0,0,1-5.34-2.86,26.63,26.63,0,0,0-17.32-8.47,23.29,23.29,0,0,0-17.33,5.86,8.61,8.61,0,0,1-6.77,2.22l-159.56-25.79a7.25,7.25,0,0,1-5-3.26,35.36,35.36,0,0,0-28-15.11c-9.12-.39-14.2,2-17.06,4.3-2.61,2.21-6.13,4.3-9.51,3.78-165.55-29.44-182.1-46.89-183.79-49.5-.13-.26-.13-.39-.26-.65-.26-3-2.34-24-2.34-54.45,0-122.56-51.71-192.64-72.56-192.64h-.52c-20.84,0-72.55,70.08-72.55,192.64,0,30.48-1.95,51.45-2.34,54.45a1,1,0,0,1-.13.65c-1.56,2.61-18.24,20.06-183.79,49.5-3.38.65-6.9-1.57-9.51-3.78-2.86-2.35-8.07-4.69-17.06-4.3-15.37.39-24.36,10.16-27.87,15.11a8,8,0,0,1-5,3.26L477.46,928.44a9,9,0,0,1-6.78-2.22,23.79,23.79,0,0,0-17.32-5.86A26,26,0,0,0,436,928.83a8.72,8.72,0,0,1-5.34,2.86L242.87,946.93a6.5,6.5,0,0,1-6.64-4.17c-1.3-3.64-3.13-8.33-3.65-9.63-.91-2.35.52,33.21,14.2,33.47,12.11,0,137,.39,167.11.39,3.65,0,6.52,2.87,7.3,6.38a57.72,57.72,0,0,0,4,12.38c4.95,11.07,17.58,21.49,25.27,21.49,4.55.13,10.68-4.3,15-8,2.87-2.47,7.43-2.47,9.9.39l.52.53a6.82,6.82,0,0,0,5.08,2.21l26.32-.78c2.86-.13,5.21,2,7.29,3.91a5,5,0,0,0,3.26,1.43,3.76,3.76,0,0,0,1.82-.52,15.39,15.39,0,0,0,2.73-2.35c1.7-1.56,3.39-3.12,5.61-3.25l65.9-2.35c3.52-.13,6.26,2.61,7.82,5.73,1,2.35,2.86,4.3,5.73,4.17s4.43-2.08,5.21-4.43c1.17-3.25,3.78-6.25,7.29-6.38l10.16-.39c3.39-.13,6,2.6,8.21,5.21a5.16,5.16,0,0,0,4,1.82c4.43-.26,7.55-6.77,7.55-13.8-.13-4.17-.26-12.38-.39-18.11a6.46,6.46,0,0,1,6.12-6.51c3.39-.13,5.86,2.86,8.08,5.47.13.13.26.39.39.52a4.14,4.14,0,0,0,3.26,1.56c2.34,0,3.9-1.69,5-3.64,1.43-2.61,3.9-5,6.9-5.08l30.09-1.31a3.29,3.29,0,0,1,3.38,3,3.34,3.34,0,0,1-3.12,3.52l-12.25.26a6.3,6.3,0,0,0-5.86,4.42,84.28,84.28,0,0,0-2.86,19.15c-.26,12,1.43,27.49,12,27.88S811,1026.39,812,1026.52h0c.91,0,49.1,2.86,54.7,3s10-1.56,10-4c0-2.21-.39-18.23-.52-20.45v-.39c-.26-2.34-.13-6.25,1.43-6.25h10.16a1.54,1.54,0,0,1,1.44.65,1,1,0,0,1,.26.65,235.32,235.32,0,0,1,1.3,23.84c0,1.82-.13,3.78-.13,5.6,0,2.22,0,4.3-.13,6.12-.13,3.65-4.3,6.65-7.82,6.78-4.95.26-11.72.65-15.89.78-1,0-1.82.13-2.47.13-5.34.26-51.06,6-51.45,6.12h0c-.39,0-98,12-100.56,12.37s-2.34,4.95,0,4.95c.39,0,2.61.13,6.12.39,18,1,71.51,4.43,106.16,3.39,35.56-1.17,79.19-2.73,91.31-3.13a6.45,6.45,0,0,1,5.34,2.35c5.08,5.73,18.1,19.93,28.78,24-.91.65-1.17,1,.13,1h10.55c1.31,0,1-.39.13-1,10.69-3.91,23.84-18.11,28.79-24A6.45,6.45,0,0,1,995,1067c12.11.4,55.75,2,91.31,3.13,34.64,1,88.18-2.34,106.15-3.39,3.52-.26,5.73-.39,6.13-.39,2.34,0,2.6-4.43,0-4.95-2.35-.52-100-12.37-100.43-12.37Z"/><path class="cls-3" d="M2591.46,1543.62V439.86h287.85V1543.62Z"/><path class="cls-3" d="M3884.6,439.86h291L3673.33,1543.62H3444.87L2942.62,439.86h298.8L3562.1,1185Z"/><path class="cls-3" d="M4968.57,1543.62,4870,1315H4381.78l-98.6,228.59H3993.76L4508.51,439.86H4737L5253.3,1543.62Zm-494.31-444.68h303.49L4626,745.17Z"/><path class="cls-3" d="M5813.77,1557.69q-169,0-294.11-68.91-123.67-70.33-190.82-197.2-67.2-128.37-67.21-300.62t67.21-299.06q67.21-128.37,190.82-197.21,125.25-69,294.11-68.9t292.55,68.9q125.24,68.77,190.82,197.21Q6364.36,818.7,6364.35,991t-67.21,300.62q-67.22,126.8-192.38,197.2Q5981.09,1557.75,5813.77,1557.69Zm0-220.78q125.25,0,195.51-87.66,70.34-89.3,70.47-258.29t-71.9-256.73q-70.34-87.72-194-87.66-125.23,0-195.5,87.66-70.35,86.16-70.47,256.73t70.47,258.29Q5688.54,1337,5813.77,1336.91Z"/><path class="cls-3" d="M6821.67,1239.61q-63.89,0-111.63-27.61-47.09-27.55-72.68-78.42-25-51.37-25-120.35t25-119.7q25.79-51.39,72.68-78.41,47.67-27.55,111.63-27.62,45.14,0,84,14.46c25.92,9.25,47.8,22.53,65.78,40.12l-22.53,47.67c-20.45-17.19-40.9-29.44-61.48-37q-30.09-11.34-65.26-11.33-69,0-106.55,44.54-36.92,44.55-37,127.26t37,127.91c25.14,29.7,60.57,44.54,106.55,44.54,23.44,0,45.07-3.77,65.26-11.33,20.45-7.55,40.9-19.8,61.48-37l22.53,47.67q-27,26.38-65.78,40.77Q6866.8,1239.68,6821.67,1239.61Zm412.51,0q-62.72,0-109.15-27.61-45.72-27.55-70.86-78.42t-25-119.7q0-69.55,24.49-120.35,25-51.39,71.51-78.41,46.5-27.55,109.15-27.62,63.3,0,109.67,27.62c31,18,54.58,44,70.86,78.41,16.67,33.86,25.14,73.72,25.14,119.7s-8.34,86.1-25.14,120.35c-16.28,33.87-39.86,59.92-70.86,78.42S7276.38,1239.61,7234.18,1239.61Zm0-52.62q66.42,0,103.42-45.2t37-128.56q0-83.43-37-127.91-36.35-45.14-103.42-45.2-65.85,0-102.77,45.2-36.34,44.55-36.34,127.91t36.34,128.56C7156,1172,7190.28,1187,7234.18,1187Z"/><path class="cls-3" d="M958.09,41.55c-474.77,0-859.67,384.89-859.67,859.66s384.9,859.67,859.67,859.67A859.24,859.24,0,0,0,1160,1737a474.76,474.76,0,0,1-19.54-65,794.25,794.25,0,0,1-182.35,21.1c-437.39,0-791.94-354.55-791.94-791.94S520.7,109.28,958.09,109.28,1750,463.82,1750,901.21a792.5,792.5,0,0,1-24.1,194.6,471.62,471.62,0,0,1,64.6,20.58,855.74,855.74,0,0,0,27.23-215.18C1817.76,426.44,1432.86,41.55,958.09,41.55Z"/></svg>